HIERARCHY
ROOT Hips
{
	OFFSET 0.00000 0.00000 0.00000
	CHANNELS 6 Xposition Yposition Zposition Zrotation Yrotation Xrotation 
	JOINT LHipJoint
	{
		OFFSET 0 0 0
		CHANNELS 3 Zrotation Yrotation Xrotation
		JOINT LeftUpLeg
		{
			OFFSET 1.46561 -1.72757 0.83774
			CHANNELS 3 Zrotation Yrotation Xrotation
			JOINT LeftLeg
			{
				OFFSET 2.48915 -6.83890 0.00000
				CHANNELS 3 Zrotation Yrotation Xrotation
				JOINT LeftFoot
				{
					OFFSET 2.60555 -7.15868 0.00000
					CHANNELS 3 Zrotation Yrotation Xrotation
					JOINT LeftToeBase
					{
						OFFSET 0.19248 -0.52884 2.26738
						CHANNELS 3 Zrotation Yrotation Xrotation
						End Site
						{
							OFFSET 0.00000 -0.00000 1.17015
						}
					}
				}
			}
		}
	}
	JOINT RHipJoint
	{
		OFFSET 0 0 0
		CHANNELS 3 Zrotation Yrotation Xrotation
		JOINT RightUpLeg
		{
			OFFSET -1.46918 -1.72757 0.83774
			CHANNELS 3 Zrotation Yrotation Xrotation
			JOINT RightLeg
			{
				OFFSET -2.49034 -6.84216 0.00000
				CHANNELS 3 Zrotation Yrotation Xrotation
				JOINT RightFoot
				{
					OFFSET -2.65971 -7.30750 0.00000
					CHANNELS 3 Zrotation Yrotation Xrotation
					JOINT RightToeBase
					{
						OFFSET -0.19227 -0.52827 2.30785
						CHANNELS 3 Zrotation Yrotation Xrotation
						End Site
						{
							OFFSET -0.00000 -0.00000 1.18972
						}
					}
				}
			}
		}
	}
	JOINT LowerBack
	{
		OFFSET 0 0 0
		CHANNELS 3 Zrotation Yrotation Xrotation
		JOINT Spine
		{
			OFFSET 0.02432 2.19909 -0.28000
			CHANNELS 3 Zrotation Yrotation Xrotation
			JOINT Spine1
			{
				OFFSET 0.03714 2.21816 -0.15261
				CHANNELS 3 Zrotation Yrotation Xrotation
				JOINT Neck
				{
					OFFSET 0 0 0
					CHANNELS 3 Zrotation Yrotation Xrotation
					JOINT Neck1
					{
						OFFSET -0.01896 1.56165 0.21681
						CHANNELS 3 Zrotation Yrotation Xrotation
						JOINT Head
						{
							OFFSET 0.02744 1.56009 0.06764
							CHANNELS 3 Zrotation Yrotation Xrotation
							End Site
							{
								OFFSET 0.01212 1.60574 0.00298
							}
						}
					}
				}
				JOINT LeftShoulder
				{
					OFFSET 0 0 0
					CHANNELS 3 Zrotation Yrotation Xrotation
					JOINT LeftArm
					{
						OFFSET 3.05595 1.48048 -0.60794
						CHANNELS 3 Zrotation Yrotation Xrotation
						JOINT LeftForeArm
						{
							OFFSET 5.20607 -0.00000 -0.00000
							CHANNELS 3 Zrotation Yrotation Xrotation
							JOINT LeftHand
							{
								OFFSET 3.39961 -0.00000 0.00000
								CHANNELS 3 Zrotation Yrotation Xrotation
								JOINT LeftFingerBase
								{
									OFFSET 0 0 0
									CHANNELS 3 Zrotation Yrotation Xrotation
									JOINT LeftHandIndex1
									{
										OFFSET 0.51969 -0.00000 0.00000
										CHANNELS 3 Zrotation Yrotation Xrotation
										End Site
										{
											OFFSET 0.41899 -0.00000 0.00000
										}
									}
								}
								JOINT LThumb
								{
									OFFSET 0 0 0
									CHANNELS 3 Zrotation Yrotation Xrotation
									End Site
									{
										OFFSET 0.42539 -0.00000 0.42539
									}
								}
							}
						}
					}
				}
				JOINT RightShoulder
				{
					OFFSET 0 0 0
					CHANNELS 3 Zrotation Yrotation Xrotation
					JOINT RightArm
					{
						OFFSET -2.99052 1.57608 -0.69102
						CHANNELS 3 Zrotation Yrotation Xrotation
						JOINT RightForeArm
						{
							OFFSET -5.32214 -0.00000 0.00000
							CHANNELS 3 Zrotation Yrotation Xrotation
							JOINT RightHand
							{
								OFFSET -3.51208 -0.00000 0.00000
								CHANNELS 3 Zrotation Yrotation Xrotation
								JOINT RightFingerBase
								{
									OFFSET 0 0 0
									CHANNELS 3 Zrotation Yrotation Xrotation
									JOINT RightHandIndex1
									{
										OFFSET -0.58668 -0.00000 0.00000
										CHANNELS 3 Zrotation Yrotation Xrotation
										End Site
										{
											OFFSET -0.47300 -0.00000 0.00000
										}
									}
								}
								JOINT RThumb
								{
									OFFSET 0 0 0
									CHANNELS 3 Zrotation Yrotation Xrotation
									End Site
									{
										OFFSET -0.48022 -0.00000 0.48022
									}
								}
							}
						}
					}
				}
			}
		}
	}
}
MOTION
Frames: 12
Frame Time: .0083333
0.4845 17.5672 -13.7764 0 0 0 0 0 0 -21 0 0 0 0 0 0 0 0 0 0 0 0 0 0 21 0 0 0 0 0 0 0 0 0 0 0 0 0 0 0 0 0 0 0 0 0 0 -16 0 0 21 0 0 11 0 0 0 -8 0 0 0 0 0 0 0 0 0 0 0 0 0 0 0 0 0 0 0 0 8 0 0 0 0 0 0 0 0 0 0 0 0 0 0 0 0 0
0.4845 17.5672 -13.7764 -1.4867 -0.8525 6.0182 0.0000 0.0000 0.0000 -18.3120 4.5173 -12.1839 0.7828 5.6486 15.7682 0.4000 -2.5371 -11.3407 0.2033 -2.9035 -8.0103 0.0000 0.0000 0.0000 19.6245 0.3826 -11.3852 -1.0549 -6.5306 18.3320 -0.5831 2.8841 -13.7287 -0.1806 -2.7372 7.5479 0.4862 -0.4402 -0.9873 1.6431 -0.6821 4.5282 1.3908 -0.3579 5.2467 -2.6990 0.6170 -15.6807 0.2345 1.5516 25.2937 0.7537 0.4744 10.7052 -0.0000 0.0000 0.0000 -88.8422 -12.3760 36.3025 10.3210 -17.2400 -1.5687 -0.0000 0.0000 -4.0199 25.0313 -3.5673 -1.6643 -7.1250 0.0000 -0.0000 -1.2052 26.0434 0.5538 -0.0000 0.0000 0.0000 88.3245 12.1514 17.5830 -12.8519 21.0698 -2.3998 0.0000 0.0000 31.7656 -21.4612 -24.7431 9.3440 7.1250 -0.0000 -0.0000 8.7780 -56.1087 -2.4049
0.4826 17.5665 -13.7775 -1.5057 -0.8227 6.0123 0.0000 0.0000 0.0000 -18.2786 4.4852 -12.1801 0.7838 5.6519 15.7778 0.4008 -2.5329 -11.3541 0.2001 -2.8801 -7.9452 0.0000 0.0000 0.0000 19.6530 0.4035 -11.3723 -1.0558 -6.5335 18.3406 -0.5845 2.8513 -13.7494 -0.1840 -2.7627 7.6188 0.5008 -0.4493 -0.9881 1.6439 -0.6950 4.5301 1.3827 -0.3637 5.2493 -2.6810 0.6236 -15.6943 0.2184 1.5608 25.2811 0.7461 0.4785 10.7034 0.0000 0.0000 0.0000 -89.0060 -12.6692 35.9095 9.9770 -16.7036 -1.4683 -0.0000 0.0000 -3.5650 25.0266 -3.8873 -1.8129 -7.1250 0.0000 -0.0000 -1.2125 25.6909 0.5671 0.0000 0.0000 0.0000 88.3490 12.1733 17.6026 -12.8389 21.0507 -2.3951 0.0000 0.0000 31.7876 -21.3803 -24.8138 9.3304 7.1250 -0.0000 -0.0000 8.8942 -56.1643 -2.4491
0.4814 17.5658 -13.7782 -1.4942 -0.7905 6.0073 0.0000 0.0000 0.0000 -18.2835 4.4753 -12.1809 0.7850 5.6562 15.7902 0.4020 -2.5558 -11.3684 0.2019 -2.8931 -7.9811 0.0000 0.0000 0.0000 19.6425 0.3621 -11.3855 -1.0570 -6.5369 18.3505 -0.5849 2.8851 -13.7497 -0.1905 -2.8106 7.7520 0.4926 -0.4543 -0.9816 1.6385 -0.7008 4.5251 1.3814 -0.3668 5.2404 -2.6885 0.6124 -15.6800 0.2284 1.5431 25.2205 0.7480 0.4718 10.6783 -0.0000 0.0000 0.0000 -89.0600 -12.6552 36.0118 9.9869 -16.7190 -1.4712 -0.0000 0.0000 -3.6524 25.0083 -3.6877 -1.7186 -7.1250 0.0000 -0.0000 -1.2239 25.9115 0.5662 -0.0000 0.0000 0.0000 88.3622 12.1524 17.6411 -12.8577 21.0784 -2.4019 0.0000 0.0000 31.7419 -21.4244 -24.7217 9.3192 7.1250 -0.0000 -0.0000 8.8074 -56.0791 -2.4068
0.4797 17.5654 -13.7797 -1.5086 -0.7714 6.0017 0.0000 0.0000 0.0000 -18.2590 4.4606 -12.1833 0.7861 5.6603 15.8018 0.4029 -2.5575 -11.3814 0.2003 -2.8817 -7.9494 0.0000 0.0000 0.0000 19.6658 0.3507 -11.3912 -1.0581 -6.5404 18.3607 -0.5852 2.8712 -13.7556 -0.1841 -2.7635 7.6211 0.4987 -0.4542 -0.9642 1.6386 -0.7005 4.5137 1.3782 -0.3663 5.2184 -2.6245 0.6332 -15.6978 0.1835 1.5681 25.2482 0.7248 0.4834 10.6926 -0.0000 0.0000 0.0000 -89.1114 -12.5948 36.1028 10.0294 -16.7855 -1.4834 -0.0000 0.0000 -3.7026 25.0019 -3.7222 -1.7341 -7.1250 0.0000 -0.0000 -1.2293 25.8737 0.5697 -0.0000 0.0000 0.0000 88.3790 12.1336 17.6822 -12.8631 21.0863 -2.4038 0.0000 0.0000 31.7249 -21.4020 -24.7664 9.3242 7.1250 -0.0000 -0.0000 8.8505 -56.1203 -2.4275
0.4782 17.5649 -13.7808 -1.5155 -0.7496 5.9938 0.0000 0.0000 0.0000 -18.2430 4.4465 -12.1803 0.7871 5.6634 15.8110 0.4038 -2.5611 -11.3941 0.2000 -2.8795 -7.9434 0.0000 0.0000 0.0000 19.6787 0.3340 -11.3965 -1.0596 -6.5449 18.3740 -0.5858 2.8733 -13.7625 -0.1833 -2.7574 7.6040 0.4988 -0.4563 -0.9530 1.6381 -0.7030 4.5081 1.3776 -0.3675 5.2061 -2.5972 0.6401 -15.7005 0.1630 1.5759 25.2409 0.7139 0.4872 10.6907 0.0000 -0.0000 0.0000 -89.1795 -12.5945 36.1303 10.0143 -16.7620 -1.4791 -0.0000 0.0000 -3.6971 24.9885 -3.7249 -1.7343 -7.1250 0.0000 -0.0000 -1.2393 25.8712 0.5745 0.0000 -0.0000 0.0000 88.3928 12.1214 17.7203 -12.8686 21.0944 -2.4058 0.0000 0.0000 31.7096 -21.3961 -24.7727 9.3236 7.1250 -0.0000 -0.0000 8.8595 -56.1255 -2.4311
0.4767 17.5643 -13.7819 -1.5207 -0.7318 5.9853 0.0000 0.0000 0.0000 -18.2297 4.4333 -12.1783 0.7883 5.6677 15.8232 0.4048 -2.5602 -11.4083 0.2002 -2.8808 -7.9472 0.0000 0.0000 0.0000 19.6893 0.3134 -11.4024 -1.0609 -6.5486 18.3848 -0.5861 2.8804 -13.7655 -0.1820 -2.7480 7.5780 0.4950 -0.4570 -0.9412 1.6376 -0.7034 4.5027 1.3792 -0.3678 5.1938 -2.5694 0.6469 -15.7053 0.1407 1.5842 25.2393 0.7024 0.4910 10.6914 0.0000 0.0000 0.0000 -89.2399 -12.5734 36.1923 10.0240 -16.7772 -1.4819 -0.0000 0.0000 -3.7271 24.9681 -3.7067 -1.7242 -7.1250 0.0000 -0.0000 -1.2546 25.8919 0.5809 0.0000 0.0000 0.0000 88.4033 12.1091 17.7592 -12.8732 21.1011 -2.4074 0.0000 0.0000 31.6987 -21.3978 -24.7701 9.3235 7.1250 -0.0000 -0.0000 8.8567 -56.1231 -2.4298
0.4753 17.5639 -13.7831 -1.5263 -0.7167 5.9769 0.0000 0.0000 0.0000 -18.2167 4.4197 -12.1742 0.7891 5.6705 15.8313 0.4055 -2.5545 -11.4195 0.2006 -2.8839 -7.9556 0.0000 0.0000 0.0000 19.6999 0.2922 -11.4108 -1.0623 -6.5530 18.3976 -0.5865 2.8914 -13.7680 -0.1809 -2.7396 7.5545 0.4901 -0.4564 -0.9303 1.6369 -0.7022 4.4983 1.3815 -0.3674 5.1830 -2.5362 0.6544 -15.7153 0.1139 1.5935 25.2465 0.6885 0.4950 10.6964 0.0000 -0.0000 0.0000 -89.2996 -12.5568 36.2543 10.0311 -16.7883 -1.4839 -0.0000 0.0000 -3.7509 24.9465 -3.7085 -1.7234 -7.1250 0.0000 -0.0000 -1.2710 25.8906 0.5886 0.0000 -0.0000 0.0000 88.4120 12.0984 17.7978 -12.8765 21.1059 -2.4086 0.0000 0.0000 31.6910 -21.3975 -24.7703 9.3234 7.1250 -0.0000 -0.0000 8.8570 -56.1232 -2.4300
0.4740 17.5635 -13.7842 -1.5319 -0.7040 5.9693 0.0000 0.0000 0.0000 -18.2044 4.4053 -12.1697 0.7898 5.6731 15.8389 0.4061 -2.5447 -11.4297 0.2012 -2.8882 -7.9676 0.0000 0.0000 0.0000 19.7099 0.2684 -11.4204 -1.0637 -6.5569 18.4092 -0.5867 2.9078 -13.7688 -0.1805 -2.7363 7.5454 0.4843 -0.4546 -0.9222 1.6356 -0.6992 4.4955 1.3835 -0.3661 5.1754 -2.5023 0.6605 -15.7274 0.0872 1.6006 25.2573 0.6744 0.4981 10.7032 0.0000 -0.0000 0.0000 -89.3561 -12.5465 36.3281 10.0358 -16.7956 -1.4853 -0.0000 0.0000 -3.7827 24.9334 -3.7176 -1.7265 -7.1250 0.0000 -0.0000 -1.2810 25.8811 0.5935 0.0000 -0.0000 0.0000 88.4194 12.0890 17.8328 -12.8798 21.1109 -2.4098 0.0000 0.0000 31.6886 -21.3979 -24.7633 9.3212 7.1250 -0.0000 -0.0000 8.8536 -56.1163 -2.4275
0.4728 17.5632 -13.7853 -1.5370 -0.6921 5.9640 0.0000 0.0000 0.0000 -18.1931 4.3897 -12.1676 0.7906 5.6760 15.8470 0.4066 -2.5332 -11.4383 0.2020 -2.8940 -7.9838 0.0000 0.0000 0.0000 19.7195 0.2417 -11.4322 -1.0647 -6.5599 18.4180 -0.5868 2.9262 -13.7669 -0.1799 -2.7319 7.5333 0.4778 -0.4517 -0.9176 1.6332 -0.6950 4.4934 1.3849 -0.3642 5.1706 -2.4612 0.6668 -15.7477 0.0581 1.6072 25.2775 0.6581 0.5012 10.7152 -0.0000 0.0000 0.0000 -89.4095 -12.5406 36.4121 10.0395 -16.8013 -1.4863 -0.0000 0.0000 -3.8175 24.9274 -3.7384 -1.7357 -7.1250 0.0000 -0.0000 -1.2857 25.8583 0.5964 -0.0000 0.0000 0.0000 88.4257 12.0812 17.8639 -12.8833 21.1161 -2.4111 0.0000 0.0000 31.6887 -21.3936 -24.7583 9.3174 7.1250 -0.0000 -0.0000 8.8559 -56.1102 -2.4268
0.4716 17.5630 -13.7863 -1.5448 -0.6832 5.9596 0.0000 0.0000 0.0000 -18.1790 4.3754 -12.1662 0.7915 5.6789 15.8556 0.4071 -2.5211 -11.4468 0.2024 -2.8971 -7.9925 0.0000 0.0000 0.0000 19.7320 0.2169 -11.4427 -1.0653 -6.5619 18.4238 -0.5867 2.9439 -13.7633 -0.1793 -2.7278 7.5217 0.4726 -0.4473 -0.9143 1.6309 -0.6886 4.4901 1.3858 -0.3612 5.1651 -2.4201 0.6722 -15.7662 0.0342 1.6111 25.3037 0.6434 0.5036 10.7291 -0.0000 0.0000 0.0000 -89.4592 -12.5334 36.5078 10.0439 -16.8082 -1.4876 -0.0000 0.0000 -3.8600 24.9258 -3.7647 -1.7478 -7.1250 0.0000 -0.0000 -1.2873 25.8294 0.5980 -0.0000 0.0000 0.0000 88.4319 12.0698 17.8893 -12.8870 21.1215 -2.4124 0.0000 0.0000 31.6916 -21.3895 -24.7486 9.3121 7.1250 -0.0000 -0.0000 8.8559 -56.0994 -2.4245
0.4704 17.5628 -13.7872 -1.5544 -0.6770 5.9572 0.0000 0.0000 0.0000 -18.1632 4.3621 -12.1665 0.7923 5.6820 15.8645 0.4076 -2.5073 -11.4554 0.2030 -2.9008 -8.0026 0.0000 0.0000 0.0000 19.7467 0.1952 -11.4526 -1.0657 -6.5629 18.4267 -0.5864 2.9596 -13.7578 -0.1788 -2.7234 7.5095 0.4670 -0.4418 -0.9160 1.6292 -0.6810 4.4872 1.3876 -0.3576 5.1628 -2.3788 0.6777 -15.7894 0.0141 1.6142 25.3371 0.6300 0.5060 10.7465 0.0000 0.0000 0.0000 -89.5075 -12.5260 36.6077 10.0504 -16.8184 -1.4895 -0.0000 0.0000 -3.9010 24.9244 -3.7821 -1.7557 -7.1250 0.0000 -0.0000 -1.2886 25.8103 0.5991 0.0000 0.0000 0.0000 88.4367 12.0597 17.9123 -12.8898 21.1255 -2.4134 0.0000 0.0000 31.6919 -21.3866 -24.7503 9.3113 7.1250 -0.0000 -0.0000 8.8597 -56.1005 -2.4258
